HIERARCHY
ROOT Hips
{
	OFFSET 0.000000 0.000000 0.000000
	CHANNELS 6 Xposition Yposition Zposition Xrotation Yrotation Zrotation
	JOINT LeftUpLeg_virtual
	{
		OFFSET 0.000000 0.000000 0.000000
		CHANNELS 3 Xrotation Yrotation Zrotation
		JOINT LeftUpLeg
		{
			OFFSET 10.205400 -3.823500 0.155100
			CHANNELS 3 Xrotation Yrotation Zrotation
			JOINT LeftLeg
			{
				OFFSET 0.708757 -12.982077 0.567790
				CHANNELS 3 Xrotation Yrotation Zrotation
				JOINT LeftFoot
				{
					OFFSET -0.708756 -10.717838 -2.184338
					CHANNELS 3 Xrotation Yrotation Zrotation
					JOINT LeftToeBase
					{
						OFFSET 0.108149 -7.191104 7.560241
						CHANNELS 3 Xrotation Yrotation Zrotation
						JOINT LeftToe_End
						{
							OFFSET 0.070230 0.081724 4.490308
							CHANNELS 3 Xrotation Yrotation Zrotation
							End Site
							{
								OFFSET 0 0 0
							}
						}
					}
				}
			}
		}
	}
	JOINT RightUpLeg_virtual
	{
		OFFSET 0.000000 0.000000 0.000000
		CHANNELS 3 Xrotation Yrotation Zrotation
		JOINT RightUpLeg
		{
			OFFSET -10.205400 -3.823500 0.005500
			CHANNELS 3 Xrotation Yrotation Zrotation
			JOINT RightLeg
			{
				OFFSET -0.708756 -12.982134 0.610632
				CHANNELS 3 Xrotation Yrotation Zrotation
				JOINT RightFoot
				{
					OFFSET 0.708754 -10.717769 -1.945823
					CHANNELS 3 Xrotation Yrotation Zrotation
					JOINT RightToeBase
					{
						OFFSET -0.108140 -7.191069 7.372968
						CHANNELS 3 Xrotation Yrotation Zrotation
						JOINT RightToe_End
						{
							OFFSET -0.070227 0.081735 4.479403
							CHANNELS 3 Xrotation Yrotation Zrotation
							End Site
							{
								OFFSET 0 0 0
							}
						}
					}
				}
			}
		}
	}
	JOINT Spine_virtual
	{
		OFFSET 0.000000 0.000000 0.000000
		CHANNELS 3 Xrotation Yrotation Zrotation
		JOINT Spine
		{
			OFFSET 0.000000 6.876099 0.125700
			CHANNELS 3 Xrotation Yrotation Zrotation
			JOINT Spine1
			{
				OFFSET 0.000000 5.730043 0.104720
				CHANNELS 3 Xrotation Yrotation Zrotation
				JOINT Spine1_split
				{
					OFFSET 0.000000 5.730043 0.104720
					CHANNELS 3 Xrotation Yrotation Zrotation
					JOINT Spine2
					{
						OFFSET 0.000000 5.730043 0.104720
						CHANNELS 3 Xrotation Yrotation Zrotation
						JOINT Neck_virtual
						{
							OFFSET 0.000000 0.000000 0.000000
							CHANNELS 3 Xrotation Yrotation Zrotation
							JOINT Neck
							{
								OFFSET 0.000000 10.314075 0.188496
								CHANNELS 3 Xrotation Yrotation Zrotation
								JOINT Head
								{
									OFFSET 0.000000 7.643700 -2.377400
									CHANNELS 3 Xrotation Yrotation Zrotation
									JOINT HeadTop_End
									{
										OFFSET 0.000000 43.788605 -13.619600
										CHANNELS 3 Xrotation Yrotation Zrotation
										End Site
										{
											OFFSET 0 0 0
										}
									}
								}
							}
						}
						JOINT LeftShoulder_virtual
						{
							OFFSET 0.000000 0.000000 0.000000
							CHANNELS 3 Xrotation Yrotation Zrotation
							JOINT LeftShoulder
							{
								OFFSET 2.196100 4.412489 0.087492
								CHANNELS 3 Xrotation Yrotation Zrotation
								JOINT LeftShoulder_split
								{
									OFFSET 2.196100 4.412489 0.087492
									CHANNELS 3 Xrotation Yrotation Zrotation
									JOINT LeftArm
									{
										OFFSET 8.771219 -2.981674 -0.026999
										CHANNELS 3 Xrotation Yrotation Zrotation
										JOINT LeftForeArm
										{
											OFFSET 8.512804 0.000000 -0.000000
											CHANNELS 3 Xrotation Yrotation Zrotation
											JOINT LeftHand
											{
												OFFSET 18.484802 0.000000 -0.000000
												CHANNELS 3 Xrotation Yrotation Zrotation
												End Site
												{
													OFFSET 0 0 0
												}
											}
										}
									}
								}
							}
						}
						JOINT RightShoulder_virtual
						{
							OFFSET 0.000000 0.000000 0.000000
							CHANNELS 3 Xrotation Yrotation Zrotation
							JOINT RightShoulder
							{
								OFFSET -2.196100 4.412496 0.070690
								CHANNELS 3 Xrotation Yrotation Zrotation
								JOINT RightShoulder_split
								{
									OFFSET -2.196100 4.412496 0.070690
									CHANNELS 3 Xrotation Yrotation Zrotation
									JOINT RightArm
									{
										OFFSET -8.771282 -2.981682 -0.094208
										CHANNELS 3 Xrotation Yrotation Zrotation
										JOINT RightForeArm
										{
											OFFSET -8.494598 0.000000 0.000000
											CHANNELS 3 Xrotation Yrotation Zrotation
											JOINT RightHand
											{
												OFFSET -18.483803 0.000000 0.000001
												CHANNELS 3 Xrotation Yrotation Zrotation
												End Site
												{
													OFFSET 0 0 0
												}
											}
										}
									}
								}
							}
						}
					}
				}
			}
		}
	}
}
MOTION
Frames: 7
Frame Time: 0.03333333
-0.265759 28.327438 1.657455 0.000000 0.000000 0.000000 7.604665 -46.764485 10.793607 -58.550581 22.774608 37.601182 52.604061 -16.609075 5.766849 0.009889 -0.256250 -22.692909 -2.377066 -1.733627 7.794243 0.000000 0.000000 0.000000 8.894949 -45.103287 11.879652 -24.326473 3.206217 -24.062497 49.441342 7.176159 -7.157316 -32.824612 0.938113 27.468437 7.487704 5.602213 -0.568184 0.000000 0.000000 0.000000 6.509823 -51.689273 10.612489 11.832145 4.214249 -4.327055 4.846730 8.610319 -4.163882 -0.023544 -2.209967 -0.169886 0.000000 0.000000 0.000000 -2.001804 7.597414 -2.051827 -1.176540 12.544625 0.512836 -1.176946 17.054117 -3.361538 0.000000 0.000000 0.000000 -4.975756 7.463180 -2.769121 0.834393 -15.840457 -0.860295 7.639877 -0.074423 0.670737 -10.113844 2.026354 -43.170398 -24.163280 -36.472718 -16.192961 0.000000 0.000000 0.000000 -5.049104 7.043932 -1.953499 -2.920524 17.206887 1.544631 -1.815658 0.052561 -2.005978 10.928898 -29.383498 59.493236 -26.253318 45.649743 28.090633 0.000000 0.000000 0.000000 
-0.264135 28.187119 1.324688 0.000000 0.000000 0.000000 7.190649 -47.473418 11.078734 -57.878839 20.898454 37.743550 54.666041 -17.101564 6.540270 0.635285 -0.396170 -25.835551 -1.888709 -1.462822 7.217999 0.000000 0.000000 0.000000 8.344885 -45.045712 11.735698 -24.008689 3.058700 -24.960221 48.936874 6.473467 -6.520070 -32.341291 -0.032709 25.540873 12.309461 5.873070 -0.567900 0.000000 0.000000 0.000000 5.579903 -51.932865 10.208134 12.561786 3.878375 -4.532607 4.980826 8.602308 -4.171230 -0.422705 -2.413359 0.088455 0.000000 0.000000 0.000000 -2.091700 7.494109 -1.996441 -0.677668 12.347842 0.640073 -0.520083 17.673644 -4.078886 0.000000 0.000000 0.000000 -5.215999 7.442005 -2.741027 0.508575 -14.284688 -1.086762 7.892452 -0.818137 1.218470 -9.306755 2.430897 -42.441204 -23.988811 -36.661563 -16.110123 0.000000 0.000000 0.000000 -5.209283 7.001825 -1.874457 -2.860340 18.306804 0.833951 -0.691309 2.009493 -3.167368 10.400426 -29.213614 60.106163 -26.848171 46.364253 28.252780 0.000000 0.000000 0.000000 
-0.412341 28.000818 1.024893 0.000000 0.000000 0.000000 7.609829 -49.960955 11.399812 -57.149853 17.527194 38.646057 58.329604 -16.100410 7.028538 -0.364848 1.855967 -25.270762 -2.189335 -0.930974 5.752164 0.000000 0.000000 0.000000 7.696331 -46.563380 11.201981 -24.299810 4.441934 -26.573071 48.908126 7.381768 -6.083962 -30.590286 -1.598727 26.643441 13.138487 6.050034 -0.633411 0.000000 0.000000 0.000000 4.811348 -52.757163 9.193394 13.277207 3.383359 -4.477693 5.138592 8.530408 -4.246810 -0.689945 -3.132232 0.423147 0.000000 0.000000 0.000000 -1.996951 7.371798 -2.076762 -0.050092 11.725640 0.665966 -0.024649 18.252169 -5.091664 0.000000 0.000000 0.000000 -5.193517 7.391867 -2.784311 0.234359 -12.008324 -1.083342 8.164086 -2.046641 1.432273 -8.065735 3.213304 -41.229057 -23.992235 -36.820669 -16.497876 0.000000 0.000000 0.000000 -5.266172 6.898056 -1.910777 -2.910380 19.712981 0.222116 0.050028 3.442776 -3.529656 9.536306 -27.469310 59.399526 -26.364844 46.864230 26.910477 0.000000 0.000000 0.000000 
-0.677371 27.794445 0.797974 0.000000 0.000000 0.000000 8.335176 -54.001279 11.350488 -56.801646 13.604366 39.818814 63.310663 -13.881176 6.894805 -3.467855 5.507451 -20.916170 -2.474984 -0.203897 3.485179 0.000000 0.000000 0.000000 7.193930 -49.333022 10.246058 -24.833986 7.137116 -28.051338 49.408854 8.998411 -5.888540 -28.567297 -3.519135 29.287609 10.230745 5.936432 -0.381033 0.000000 0.000000 0.000000 4.701956 -54.461087 7.909461 13.800317 2.900021 -4.135625 5.349459 8.442484 -4.328524 -0.301479 -3.632534 1.123173 0.000000 0.000000 0.000000 -1.712616 7.339761 -2.200344 0.490378 10.660981 0.586527 0.100527 18.844538 -6.306417 0.000000 0.000000 0.000000 -4.869296 7.384748 -2.822824 0.022848 -9.385625 -0.914779 8.265084 -3.406287 1.176268 -6.148520 4.382128 -39.678263 -24.128053 -37.015445 -17.254128 0.000000 0.000000 0.000000 -5.120256 6.842623 -1.996987 -2.985631 21.387143 -0.114033 0.181940 3.860744 -2.980318 7.905852 -24.718164 57.679909 -24.850682 46.453278 24.226196 0.000000 0.000000 0.000000 
-0.939223 27.609159 0.805822 0.000000 0.000000 0.000000 8.849391 -58.804937 10.504667 -56.875221 10.201754 40.251281 69.802641 -11.127881 5.811174 -8.583461 8.417934 -13.604997 -2.834401 0.505036 1.205507 0.000000 0.000000 0.000000 7.354248 -53.743432 9.101441 -25.311417 10.302651 -28.155966 49.524988 9.833885 -5.683674 -27.635825 -5.699698 30.449762 7.195672 5.487556 0.108940 0.000000 0.000000 0.000000 5.235348 -57.507891 6.593254 14.038183 2.603307 -3.443971 5.638185 8.435792 -4.314843 0.556374 -4.050407 1.874178 0.000000 0.000000 0.000000 -1.253577 7.449756 -2.245448 0.868923 9.304353 0.285781 -0.153450 19.544445 -7.502231 0.000000 0.000000 0.000000 -4.260342 7.500930 -2.750967 -0.123057 -6.633414 -0.780029 8.418168 -4.190415 0.894945 -3.188881 5.829122 -38.302127 -24.151523 -37.461231 -18.118772 0.000000 0.000000 0.000000 -4.758343 6.935542 -2.036337 -3.015594 23.358327 -0.146397 0.175725 3.355633 -1.465929 5.097904 -21.303030 55.117554 -22.714013 44.545941 20.732196 0.000000 0.000000 0.000000 
-1.043851 27.454187 1.096117 0.000000 0.000000 0.000000 9.288600 -63.899459 9.034840 -58.048214 7.531956 38.819452 77.894462 -9.387065 4.343754 -12.447370 8.178638 -7.413925 -5.198709 1.116150 0.322327 0.000000 0.000000 0.000000 8.985843 -59.312475 8.600473 -25.951227 13.327299 -26.390862 48.633003 9.368398 -5.353261 -28.684879 -7.451552 28.520609 6.361337 4.775359 0.695896 0.000000 0.000000 0.000000 6.817872 -62.082294 5.911447 13.913640 2.550059 -2.420239 6.038084 8.560128 -4.070505 0.778832 -4.217787 2.199461 0.000000 0.000000 0.000000 -0.642996 7.685465 -2.088896 1.137464 7.664428 -0.329221 -0.506397 20.033799 -8.394508 0.000000 0.000000 0.000000 -3.476574 7.716399 -2.463075 -0.202902 -3.902028 -0.786551 8.533031 -4.261522 0.738480 1.279365 6.943940 -37.799841 -23.823464 -38.677971 -18.812530 0.000000 0.000000 0.000000 -4.205700 7.123113 -1.917661 -2.993065 25.664733 0.202481 0.204751 2.134667 0.373679 1.145302 -17.229803 52.136306 -20.164235 40.453680 16.904725 0.000000 0.000000 0.000000 
-0.983625 27.369843 1.555464 0.000000 0.000000 0.000000 10.297374 -68.580516 7.703371 -60.183003 5.622598 34.831670 86.097663 -9.245383 3.293104 -13.077397 4.454896 -4.606100 -10.161431 1.535218 1.131076 0.000000 0.000000 0.000000 13.003858 -65.465546 9.840784 -27.181730 15.540565 -22.950472 46.931350 8.202379 -4.788445 -30.097785 -7.683231 24.753302 7.270730 4.098672 0.867083 0.000000 0.000000 0.000000 10.674933 -68.134607 7.287475 13.548331 2.660672 -1.168804 6.504910 8.758976 -3.534412 0.353977 -3.898675 2.422439 0.000000 0.000000 0.000000 0.035156 7.957717 -1.646391 1.244355 5.792099 -1.103771 -0.922485 19.597327 -8.530918 0.000000 0.000000 0.000000 -2.666014 7.964747 -1.903830 -0.259193 -1.494683 -1.079268 8.528856 -3.738299 0.799450 7.533212 6.885772 -38.778273 -22.754751 -41.022085 -18.893312 0.000000 0.000000 0.000000 -3.534572 7.305959 -1.570733 -2.949002 28.424145 0.898275 0.334623 0.768567 1.714800 -3.126053 -12.104506 49.124558 -17.509905 34.517058 13.229299 0.000000 0.000000 0.000000 
